<mxfile host="app.diagrams.net" agent="Mozilla/5.0 (Windows NT 10.0; Win64; x64) AppleWebKit/537.36 (KHTML, like Gecko) Chrome/139.0.0.0 Safari/537.36" version="28.1.2">
  <diagram name="Page-1" id="W0E3eCwyeLn_9uuLJ8j-">
    <mxGraphModel dx="1014" dy="417" grid="1" gridSize="10" guides="1" tooltips="1" connect="1" arrows="1" fold="1" page="1" pageScale="1" pageWidth="1400" pageHeight="850" math="0" shadow="0">
      <root>
        <mxCell id="0" />
        <mxCell id="1" parent="0" />
        <mxCell id="ri4fA3X4wJIPtLG49xZp-1" value="" style="swimlane;startSize=0;fillColor=#fff2cc;strokeColor=#0000FF;" vertex="1" parent="1">
          <mxGeometry x="470" y="190" width="642" height="777" as="geometry">
            <mxRectangle x="180" y="160" width="50" height="40" as="alternateBounds" />
          </mxGeometry>
        </mxCell>
        <mxCell id="ri4fA3X4wJIPtLG49xZp-23" value="Server App&lt;div&gt;Volume-to-Capacity (V/C) Ratio&lt;/div&gt;" style="text;html=1;align=center;verticalAlign=middle;whiteSpace=wrap;rounded=1;fillColor=#dae8fc;strokeColor=#6c8ebf;fillStyle=solid;gradientColor=none;perimeterSpacing=0;strokeWidth=1;spacingTop=1;spacingBottom=1;" vertex="1" parent="ri4fA3X4wJIPtLG49xZp-1">
          <mxGeometry x="180" y="6" width="292" height="30" as="geometry" />
        </mxCell>
        <mxCell id="ri4fA3X4wJIPtLG49xZp-36" value="kamera" style="shape=umlActor;verticalLabelPosition=bottom;verticalAlign=top;html=1;outlineConnect=0;" vertex="1" parent="ri4fA3X4wJIPtLG49xZp-1">
          <mxGeometry x="718" y="353" width="30" height="60" as="geometry" />
        </mxCell>
        <mxCell id="ri4fA3X4wJIPtLG49xZp-60" value="server" style="shape=umlActor;verticalLabelPosition=bottom;verticalAlign=top;html=1;outlineConnect=0;" vertex="1" parent="1">
          <mxGeometry x="1190" y="660" width="30" height="60" as="geometry" />
        </mxCell>
        <mxCell id="ri4fA3X4wJIPtLG49xZp-62" value="admin/operator" style="shape=umlActor;verticalLabelPosition=bottom;verticalAlign=top;html=1;outlineConnect=0;" vertex="1" parent="1">
          <mxGeometry x="360" y="330" width="30" height="60" as="geometry" />
        </mxCell>
      </root>
    </mxGraphModel>
  </diagram>
</mxfile>
